<svg width="16" height="17" viewBox="0 0 16 17" fill="none" xmlns="http://www.w3.org/2000/svg">
<path d="M15.6386 8.51581C15.6393 7.97164 15.5933 7.4284 15.5012 6.89209H7.97742V9.96763H12.2867C12.1985 10.4588 12.0119 10.9271 11.738 11.3441C11.4642 11.7612 11.1088 12.1185 10.6933 12.3943V14.3907H13.2651C14.771 13.001 15.6386 10.9459 15.6386 8.51581Z" fill="#4285F4"/>
<path d="M7.97792 16.319C10.1309 16.319 11.9437 15.6114 13.2656 14.3914L10.6938 12.395C9.97798 12.8808 9.05607 13.1581 7.97792 13.1581C5.89697 13.1581 4.13072 11.7539 3.49912 9.86182H0.849731L0.849731 11.9192C1.51376 13.2418 2.53197 14.3536 3.7907 15.1305C5.04942 15.9075 6.49911 16.3189 7.97792 16.319Z" fill="#34A853"/>
<path d="M3.49891 9.86224C3.16501 8.87075 3.16501 7.79704 3.49891 6.80555V4.74817H0.849523C0.29092 5.86077 0 7.0887 0 8.33389C0 9.57908 0.29092 10.807 0.849523 11.9196L3.49891 9.86224Z" fill="#FBBC04"/>
<path d="M7.97792 3.50912C9.11567 3.49051 10.215 3.92079 11.0384 4.70695L13.3155 2.42774C11.8716 1.07029 9.95872 0.325023 7.97792 0.34818C6.49911 0.348248 5.04942 0.759717 3.79069 1.53665C2.53197 2.31359 1.51376 3.42541 0.849731 4.74798L3.49912 6.80537C4.13071 4.91324 5.89697 3.50912 7.97792 3.50912Z" fill="#EA4335"/>
</svg>
