<svg width="22" height="22" viewBox="0 0 22 22" fill="none" xmlns="http://www.w3.org/2000/svg">
<rect width="22" height="22" rx="11" fill="#0077B5"/>
<path d="M17.1072 16.1906C16.3853 16.1734 15.6806 16.1734 14.9587 16.1906C14.8041 16.1906 14.7697 16.1562 14.7697 16.0015C14.7697 14.7296 14.7697 13.4406 14.7697 12.1687C14.7697 11.8765 14.7525 11.5843 14.6666 11.3093C14.4087 10.4156 13.3775 10.089 12.6384 10.6906C12.2431 10.9999 12.0884 11.4296 12.0884 11.9452C12.0884 13.1484 12.0884 14.3515 12.0884 15.5546C12.0884 15.7093 12.0712 15.864 12.0884 16.0359C12.1056 16.1734 12.0369 16.2077 11.9166 16.1906C11.1775 16.1906 10.4556 16.1906 9.71655 16.1906C9.57905 16.1906 9.54468 16.1562 9.54468 16.0187C9.56187 14.9359 9.56187 13.8531 9.56187 12.7531C9.56187 11.4124 9.56187 10.0718 9.54468 8.74837C9.54468 8.59368 9.57905 8.55931 9.71655 8.55931C10.4556 8.55931 11.1775 8.55931 11.9166 8.55931C12.0541 8.55931 12.0884 8.59368 12.0884 8.73118C12.0884 9.00618 12.0884 9.28118 12.0884 9.60775C12.14 9.55618 12.1572 9.539 12.1744 9.52181C12.8447 8.54212 13.79 8.26712 14.9072 8.439C16.1962 8.64525 17.0212 9.539 17.2275 10.914C17.279 11.2406 17.2962 11.5671 17.2962 11.8937C17.2962 13.2687 17.2962 14.6265 17.2962 16.0015C17.2962 16.139 17.2619 16.1906 17.1072 16.1906Z" fill="white"/>
<path d="M8.16963 12.375C8.16963 13.5781 8.16963 14.7812 8.16963 15.9843C8.16963 16.139 8.13525 16.1906 7.98057 16.1906C7.25869 16.1734 6.53682 16.1906 5.81494 16.1906C5.67744 16.1906 5.64307 16.1562 5.64307 16.0187C5.64307 13.5953 5.64307 11.1546 5.64307 8.7312C5.64307 8.61089 5.67744 8.55933 5.81494 8.55933C6.554 8.55933 7.29307 8.55933 8.03213 8.55933C8.18682 8.55933 8.204 8.61089 8.204 8.74839C8.16963 9.95151 8.16963 11.1546 8.16963 12.375Z" fill="white"/>
<path d="M8.29 6.56557C8.11812 7.25307 7.41343 7.64839 6.60562 7.51089C5.74625 7.37338 5.265 6.5312 5.57437 5.7062C5.78062 5.19057 6.27906 4.8812 6.915 4.89839C7.8775 4.8812 8.51343 5.65464 8.29 6.56557Z" fill="white"/>
</svg>
