<svg width="24" height="24" viewBox="0 0 24 24" fill="none" xmlns="http://www.w3.org/2000/svg">
<path d="M12 24C18.5529 24 24 18.5647 24 12C24 5.44706 18.5412 0 11.9882 0C5.42353 0 0 5.44706 0 12C0 18.5647 5.43529 24 12 24ZM12 16.0118C8.45882 16.0118 5.72941 17.2706 4.54118 18.6824C2.96471 16.9176 2.01176 14.5765 2.01176 12C2.01176 6.45882 6.43529 2 11.9882 2C17.5294 2 21.9882 6.45882 22 12C22 14.5882 21.0471 16.9294 19.4588 18.6941C18.2706 17.2824 15.5412 16.0118 12 16.0118ZM12 14.0118C14.2588 14.0353 16.0353 12.1059 16.0353 9.57647C16.0353 7.2 14.2471 5.22353 12 5.22353C9.74118 5.22353 7.94118 7.2 7.96471 9.57647C7.97647 12.1059 9.72941 13.9882 12 14.0118Z" fill="#88879C"/>
</svg>
