<svg width="22" height="22" viewBox="0 0 22 22" fill="none" xmlns="http://www.w3.org/2000/svg">
<rect width="22" height="22" rx="11" fill="#1DA1F2"/>
<path d="M16.3911 8.62244C16.3911 8.74275 16.3911 8.86306 16.3911 8.96619C16.3911 12.524 13.6754 16.6318 8.72544 16.6318C7.19575 16.6318 5.78638 16.1849 4.58325 15.4287C4.7895 15.4459 5.01294 15.4631 5.21919 15.4631C6.47388 15.4631 7.64263 15.0334 8.57075 14.3115C7.38481 14.2943 6.38794 13.5037 6.06138 12.4381C6.23325 12.4724 6.38794 12.4896 6.577 12.4896C6.81763 12.4896 7.05825 12.4552 7.28169 12.3865C6.04419 12.1459 5.11606 11.0631 5.11606 9.75681C5.11606 9.73962 5.11606 9.73962 5.11606 9.72244C5.477 9.92869 5.8895 10.049 6.33638 10.0662C5.6145 9.58494 5.13325 8.75994 5.13325 7.81462C5.13325 7.31619 5.27075 6.85212 5.49419 6.45681C6.81763 8.08962 8.81138 9.15525 11.0458 9.27556C10.9942 9.0865 10.977 8.86306 10.977 8.65681C10.977 7.1615 12.1801 5.95837 13.6754 5.95837C14.4489 5.95837 15.1536 6.28494 15.6348 6.80056C16.2536 6.68025 16.8207 6.45681 17.3536 6.14744C17.1473 6.78337 16.7176 7.299 16.1676 7.64275C16.7176 7.574 17.2332 7.4365 17.7145 7.21306C17.3707 7.76306 16.9239 8.24431 16.3911 8.62244Z" fill="white"/>
</svg>
